<svg xmlns="http://www.w3.org/2000/svg" xmlns:xlink="http://www.w3.org/1999/xlink" width="1640" zoomAndPan="magnify" viewBox="0 0 1230 693.000001" height="924" preserveAspectRatio="xMidYMid meet" version="1.0"><defs><g/><clipPath id="ce23173a55"><rect x="0" width="1160" y="0" height="541"/></clipPath></defs><g transform="matrix(1, 0, 0, 1, 43, 15)"><g clip-path="url(#ce23173a55)"><g fill="#cf005e" fill-opacity="1"><g transform="translate(75.90973, 432.059124)"><g><path d="M 99.953125 -135.609375 L 99.609375 -135.578125 L 101.640625 -146.6875 C 121.054688 -149.71875 135.785156 -155.566406 145.828125 -164.234375 C 155.878906 -172.910156 163.546875 -182.84375 168.828125 -194.03125 C 174.140625 -204.988281 176.148438 -216.210938 174.859375 -227.703125 C 173.578125 -239.191406 169.125 -249.097656 161.5 -257.421875 C 155.21875 -264.285156 146.828125 -269.523438 136.328125 -273.140625 C 125.828125 -276.765625 113.128906 -277.59375 98.234375 -275.625 C 95.253906 -275.226562 92.175781 -274.707031 89 -274.0625 C 85.820312 -273.414062 82.660156 -272.648438 79.515625 -271.765625 C 70.523438 -269.179688 61.84375 -264.710938 53.46875 -258.359375 C 45.101562 -252.003906 37.472656 -244.46875 30.578125 -235.75 C 23.691406 -227.03125 17.957031 -217.9375 13.375 -208.46875 C 8.800781 -199 5.910156 -189.988281 4.703125 -181.4375 C 3.441406 -173.34375 4.023438 -166.71875 6.453125 -161.5625 C 8.890625 -156.40625 13.40625 -153.5625 20 -153.03125 C 17.207031 -145.90625 13.5625 -140.410156 9.0625 -136.546875 C 4.5625 -132.691406 -0.09375 -130.445312 -4.90625 -129.8125 C -11.09375 -128.988281 -17.128906 -130.578125 -23.015625 -134.578125 C -28.910156 -138.585938 -33.679688 -144.664062 -37.328125 -152.8125 C -40.097656 -159.664062 -41.207031 -167.617188 -40.65625 -176.671875 C -40.101562 -185.722656 -37.171875 -195.726562 -31.859375 -206.6875 C -24.898438 -221.132812 -15.210938 -234.304688 -2.796875 -246.203125 C 9.617188 -258.097656 23.648438 -267.929688 39.296875 -275.703125 C 54.941406 -283.484375 71.015625 -288.460938 87.515625 -290.640625 C 100.117188 -292.304688 113.0625 -292.269531 126.34375 -290.53125 C 139.632812 -288.800781 152.25 -285.109375 164.1875 -279.453125 C 176.125 -273.804688 186.269531 -265.816406 194.625 -255.484375 C 203.21875 -245.203125 208.429688 -234.003906 210.265625 -221.890625 C 212.097656 -209.773438 210.171875 -197.863281 204.484375 -186.15625 C 200.046875 -177.40625 193.171875 -169.4375 183.859375 -162.25 C 174.554688 -155.070312 164.195312 -149.21875 152.78125 -144.6875 C 141.375 -140.15625 130.398438 -137.191406 119.859375 -135.796875 C 116.191406 -135.316406 112.722656 -135.09375 109.453125 -135.125 C 106.179688 -135.15625 103.015625 -135.316406 99.953125 -135.609375 Z M -22.953125 -28.09375 C -13.242188 -30.539062 -4.75 -35.507812 2.53125 -43 C 9.820312 -50.488281 16.222656 -59.84375 21.734375 -71.0625 C 27.242188 -82.289062 32.273438 -94.5 36.828125 -107.6875 C 42.054688 -122.832031 47.046875 -138.46875 51.796875 -154.59375 C 56.546875 -170.726562 61.554688 -186.195312 66.828125 -201 C 72.097656 -215.8125 78.113281 -228.910156 84.875 -240.296875 C 91.644531 -251.679688 99.789062 -260.210938 109.3125 -265.890625 C 113.882812 -268.367188 118.691406 -269.941406 123.734375 -270.609375 C 128.316406 -271.222656 133.21875 -271.171875 138.4375 -270.453125 C 127.007812 -265.210938 118.148438 -256.816406 111.859375 -245.265625 C 105.566406 -233.710938 100.425781 -220.09375 96.4375 -204.40625 C 92.300781 -186.375 89.117188 -169.457031 86.890625 -153.65625 C 84.671875 -137.851562 81.640625 -121.539062 77.796875 -104.71875 C 75.796875 -95.125 73.15625 -85.097656 69.875 -74.640625 C 66.59375 -64.179688 62.472656 -53.023438 57.515625 -41.171875 C 53.023438 -31.023438 46.738281 -22.5625 38.65625 -15.78125 C 30.582031 -9 22.304688 -5.046875 13.828125 -3.921875 C 6.722656 -2.984375 -0.164062 -4.40625 -6.84375 -8.1875 C -13.53125 -11.96875 -18.898438 -18.601562 -22.953125 -28.09375 Z M -22.953125 -28.09375 "/></g></g></g><g fill="#cf005e" fill-opacity="1"><g transform="translate(278.00334, 405.357788)"><g><path d="M 50.6875 -132.609375 C 56.945312 -134.597656 63.363281 -140.28125 69.9375 -149.65625 C 76.507812 -159.039062 82.273438 -169.65625 87.234375 -181.5 C 92.117188 -192.175781 95.957031 -202.828125 98.75 -213.453125 C 101.550781 -224.078125 102.972656 -233.179688 103.015625 -240.765625 C 103.054688 -248.359375 101.007812 -252.8125 96.875 -254.125 C 94.40625 -255.195312 91.570312 -253.242188 88.375 -248.265625 C 85.1875 -243.296875 81.738281 -236.3125 78.03125 -227.3125 C 74.320312 -218.320312 70.660156 -208.109375 67.046875 -196.671875 C 63.960938 -186.472656 60.988281 -175.878906 58.125 -164.890625 C 55.269531 -153.898438 52.789062 -143.140625 50.6875 -132.609375 Z M 28.390625 -4.796875 C 19.578125 -6.203125 13.160156 -10.660156 9.140625 -18.171875 C 5.117188 -25.679688 2.9375 -35.128906 2.59375 -46.515625 C 2.53125 -55.828125 2.945312 -65.90625 3.84375 -76.75 C 5.300781 -90.46875 7.769531 -105.773438 11.25 -122.671875 C 14.726562 -139.566406 19.179688 -156.59375 24.609375 -173.75 C 30.035156 -190.90625 36.21875 -206.757812 43.15625 -221.3125 C 50.09375 -235.875 57.609375 -247.828125 65.703125 -257.171875 C 73.796875 -266.515625 82.425781 -271.789062 91.59375 -273 C 94.34375 -273.363281 97.507812 -273.203125 101.09375 -272.515625 C 108.300781 -270.898438 113.546875 -266.925781 116.828125 -260.59375 C 120.117188 -254.269531 121.726562 -246.5 121.65625 -237.28125 C 121.59375 -228.070312 120.113281 -218.085938 117.21875 -207.328125 C 114.320312 -196.566406 110.421875 -185.96875 105.515625 -175.53125 C 98.765625 -161.34375 90.445312 -148.40625 80.5625 -136.71875 C 70.6875 -125.039062 60.082031 -117.054688 48.75 -112.765625 C 47.300781 -107.910156 45.859375 -102.066406 44.421875 -95.234375 C 42.992188 -88.398438 42.082031 -81.628906 41.6875 -74.921875 C 41.289062 -68.222656 41.96875 -62.660156 43.71875 -58.234375 C 45.46875 -53.804688 48.796875 -51.566406 53.703125 -51.515625 L 55.765625 -51.78125 C 62.410156 -52.664062 69.550781 -56.410156 77.1875 -63.015625 C 84.820312 -69.617188 90.832031 -78.335938 95.21875 -89.171875 L 103.8125 -79.8125 C 99.113281 -67.769531 93.648438 -56.207031 87.421875 -45.125 C 81.191406 -34.039062 74.128906 -24.828125 66.234375 -17.484375 C 58.347656 -10.148438 49.59375 -5.847656 39.96875 -4.578125 C 36.53125 -4.128906 32.671875 -4.203125 28.390625 -4.796875 Z M 28.390625 -4.796875 "/></g></g></g><g fill="#cf005e" fill-opacity="1"><g transform="translate(362.208204, 394.232339)"><g><path d="M 26.8125 -3.546875 C 19.9375 -2.628906 13.878906 -4.332031 8.640625 -8.65625 C 3.410156 -12.976562 -0.660156 -19.144531 -3.578125 -27.15625 C -6.503906 -35.164062 -7.878906 -44.253906 -7.703125 -54.421875 C -7.535156 -64.585938 -5.351562 -74.957031 -1.15625 -85.53125 C 2.84375 -95.851562 8.160156 -106.347656 14.796875 -117.015625 C 21.429688 -127.691406 29.132812 -136.875 37.90625 -144.5625 C 46.6875 -152.25 55.921875 -156.5 65.609375 -157.3125 C 72.304688 -157.726562 78.113281 -156.101562 83.03125 -152.4375 C 87.945312 -148.78125 90.972656 -143.53125 92.109375 -136.6875 C 93.429688 -140.820312 94.867188 -145.378906 96.421875 -150.359375 C 97.984375 -155.347656 98.039062 -158.910156 96.59375 -161.046875 L 138.171875 -166.546875 C 135.796875 -165.066406 132.832031 -161.003906 129.28125 -154.359375 C 125.738281 -147.710938 122.078125 -139.707031 118.296875 -130.34375 C 114.523438 -120.988281 111.039062 -111.671875 107.84375 -102.390625 C 103.28125 -89.191406 101.640625 -79.0625 102.921875 -72 C 104.210938 -64.945312 107.347656 -61.109375 112.328125 -60.484375 C 117.304688 -59.859375 123.097656 -62.3125 129.703125 -67.84375 C 136.316406 -73.382812 142.566406 -82.140625 148.453125 -94.109375 L 157.578125 -85.875 C 150.265625 -70.6875 142.273438 -57.503906 133.609375 -46.328125 C 124.941406 -35.160156 116.457031 -26.578125 108.15625 -20.578125 C 99.851562 -14.585938 92.429688 -11.628906 85.890625 -11.703125 C 79.578125 -11.796875 74.785156 -15.414062 71.515625 -22.5625 C 68.242188 -29.707031 67.46875 -40.859375 69.1875 -56.015625 C 66.351562 -47.472656 62.769531 -39.300781 58.4375 -31.5 C 54.101562 -23.695312 49.238281 -17.28125 43.84375 -12.25 C 38.445312 -7.226562 32.769531 -4.328125 26.8125 -3.546875 Z M 35 -50.09375 C 40.726562 -50.851562 46.289062 -53.742188 51.6875 -58.765625 C 57.09375 -63.796875 62.160156 -70.003906 66.890625 -77.390625 C 71.628906 -84.773438 75.476562 -92.28125 78.4375 -99.90625 C 82.96875 -111.457031 84.832031 -120.269531 84.03125 -126.34375 C 83.226562 -132.414062 80.097656 -136.722656 74.640625 -139.265625 C 69.265625 -141.117188 63.957031 -140.242188 58.71875 -136.640625 C 53.476562 -133.035156 48.660156 -128.023438 44.265625 -121.609375 C 39.867188 -115.191406 36.046875 -108.394531 32.796875 -101.21875 C 28.785156 -92.757812 25.859375 -84.441406 24.015625 -76.265625 C 22.179688 -68.097656 22.117188 -61.503906 23.828125 -56.484375 C 25.546875 -51.460938 29.269531 -49.332031 35 -50.09375 Z M 35 -50.09375 "/></g></g></g><g fill="#cf005e" fill-opacity="1"><g transform="translate(504.154496, 375.477883)"><g><path d="M -20.578125 3.0625 L 1.3125 -64.171875 C 5.632812 -77.335938 9.5625 -89.984375 13.09375 -102.109375 C 16.625 -114.234375 19.085938 -124.695312 20.484375 -133.5 C 21.878906 -142.3125 21.679688 -148.234375 19.890625 -151.265625 L 61.484375 -156.765625 C 60.441406 -154.066406 58.96875 -150.203125 57.0625 -145.171875 C 55.164062 -140.140625 53.191406 -134.800781 51.140625 -129.15625 C 49.085938 -123.519531 47.203125 -118.375 45.484375 -113.71875 C 43.765625 -109.070312 42.453125 -105.753906 41.546875 -103.765625 C 52.546875 -124.578125 63.316406 -139.234375 73.859375 -147.734375 C 84.398438 -156.234375 93.453125 -160.984375 101.015625 -161.984375 C 103.992188 -162.378906 106.554688 -162.367188 108.703125 -161.953125 C 115.359375 -160.972656 119.394531 -156.4375 120.8125 -148.34375 C 122.238281 -140.25 120.457031 -129.460938 115.46875 -115.984375 C 108.039062 -96.347656 104.410156 -81.9375 104.578125 -72.75 C 104.742188 -63.5625 107.234375 -59.285156 112.046875 -59.921875 C 115.253906 -60.347656 119.15625 -63.019531 123.75 -67.9375 C 128.34375 -72.851562 133.078125 -79.832031 137.953125 -88.875 L 148.96875 -84.734375 C 145.34375 -71.660156 140.160156 -59.722656 133.421875 -48.921875 C 126.691406 -38.128906 119.410156 -29.300781 111.578125 -22.4375 C 103.742188 -15.570312 96.160156 -11.65625 88.828125 -10.6875 C 87.910156 -10.5625 86.925781 -10.488281 85.875 -10.46875 C 84.832031 -10.445312 83.722656 -10.476562 82.546875 -10.5625 C 75.171875 -11.675781 69.941406 -15.0625 66.859375 -20.71875 C 63.785156 -26.375 62.414062 -33.65625 62.75 -42.5625 C 63.09375 -51.46875 64.765625 -61.304688 67.765625 -72.078125 C 70.773438 -82.859375 74.691406 -93.8125 79.515625 -104.9375 C 84.515625 -116.550781 87.578125 -125.582031 88.703125 -132.03125 C 89.835938 -138.476562 88.800781 -141.488281 85.59375 -141.0625 C 82.570312 -140.894531 78.328125 -138.113281 72.859375 -132.71875 C 67.398438 -127.332031 61.375 -119.601562 54.78125 -109.53125 C 48.1875 -99.457031 41.882812 -87.144531 35.875 -72.59375 C 32.820312 -65.664062 29.679688 -57.671875 26.453125 -48.609375 C 23.222656 -39.554688 20.644531 -30.820312 18.71875 -22.40625 C 16.800781 -13.988281 15.960938 -7.117188 16.203125 -1.796875 Z M -20.578125 3.0625 "/></g></g></g><g fill="#cf005e" fill-opacity="1"><g transform="translate(641.976393, 357.268358)"><g><path d="M 26.8125 -3.546875 C 19.9375 -2.628906 13.878906 -4.332031 8.640625 -8.65625 C 3.410156 -12.976562 -0.660156 -19.144531 -3.578125 -27.15625 C -6.503906 -35.164062 -7.878906 -44.253906 -7.703125 -54.421875 C -7.535156 -64.585938 -5.351562 -74.957031 -1.15625 -85.53125 C 2.84375 -95.851562 8.160156 -106.347656 14.796875 -117.015625 C 21.429688 -127.691406 29.132812 -136.875 37.90625 -144.5625 C 46.6875 -152.25 55.921875 -156.5 65.609375 -157.3125 C 72.304688 -157.726562 78.113281 -156.101562 83.03125 -152.4375 C 87.945312 -148.78125 90.972656 -143.53125 92.109375 -136.6875 C 93.429688 -140.820312 94.867188 -145.378906 96.421875 -150.359375 C 97.984375 -155.347656 98.039062 -158.910156 96.59375 -161.046875 L 138.171875 -166.546875 C 135.796875 -165.066406 132.832031 -161.003906 129.28125 -154.359375 C 125.738281 -147.710938 122.078125 -139.707031 118.296875 -130.34375 C 114.523438 -120.988281 111.039062 -111.671875 107.84375 -102.390625 C 103.28125 -89.191406 101.640625 -79.0625 102.921875 -72 C 104.210938 -64.945312 107.347656 -61.109375 112.328125 -60.484375 C 117.304688 -59.859375 123.097656 -62.3125 129.703125 -67.84375 C 136.316406 -73.382812 142.566406 -82.140625 148.453125 -94.109375 L 157.578125 -85.875 C 150.265625 -70.6875 142.273438 -57.503906 133.609375 -46.328125 C 124.941406 -35.160156 116.457031 -26.578125 108.15625 -20.578125 C 99.851562 -14.585938 92.429688 -11.628906 85.890625 -11.703125 C 79.578125 -11.796875 74.785156 -15.414062 71.515625 -22.5625 C 68.242188 -29.707031 67.46875 -40.859375 69.1875 -56.015625 C 66.351562 -47.472656 62.769531 -39.300781 58.4375 -31.5 C 54.101562 -23.695312 49.238281 -17.28125 43.84375 -12.25 C 38.445312 -7.226562 32.769531 -4.328125 26.8125 -3.546875 Z M 35 -50.09375 C 40.726562 -50.851562 46.289062 -53.742188 51.6875 -58.765625 C 57.09375 -63.796875 62.160156 -70.003906 66.890625 -77.390625 C 71.628906 -84.773438 75.476562 -92.28125 78.4375 -99.90625 C 82.96875 -111.457031 84.832031 -120.269531 84.03125 -126.34375 C 83.226562 -132.414062 80.097656 -136.722656 74.640625 -139.265625 C 69.265625 -141.117188 63.957031 -140.242188 58.71875 -136.640625 C 53.476562 -133.035156 48.660156 -128.023438 44.265625 -121.609375 C 39.867188 -115.191406 36.046875 -108.394531 32.796875 -101.21875 C 28.785156 -92.757812 25.859375 -84.441406 24.015625 -76.265625 C 22.179688 -68.097656 22.117188 -61.503906 23.828125 -56.484375 C 25.546875 -51.460938 29.269531 -49.332031 35 -50.09375 Z M 35 -50.09375 "/></g></g></g><g fill="#cf005e" fill-opacity="1"><g transform="translate(783.922686, 338.513903)"><g><path d="M 58.3125 -0.703125 C 49.144531 0.503906 39.832031 3.25 30.375 7.53125 C 20.914062 11.8125 12.253906 16.859375 4.390625 22.671875 C -3.460938 28.492188 -9.71875 34.507812 -14.375 40.71875 C -19.039062 46.925781 -21.210938 52.570312 -20.890625 57.65625 C -20.566406 62.75 -16.96875 66.59375 -10.09375 69.1875 C -7.164062 70.195312 -4.210938 70.503906 -1.234375 70.109375 C 4.265625 69.378906 9.796875 66.664062 15.359375 61.96875 C 20.921875 57.269531 26.378906 51.359375 31.734375 44.234375 C 37.085938 37.117188 42.03125 29.585938 46.5625 21.640625 C 51.101562 13.703125 55.019531 6.253906 58.3125 -0.703125 Z M -31.546875 28.65625 C -24.660156 20.75 -15.945312 13.414062 -5.40625 6.65625 C 5.125 -0.09375 16.75 -6.054688 29.46875 -11.234375 C 42.1875 -16.410156 54.988281 -20.550781 67.875 -23.65625 C 71.664062 -30.21875 71.875 -35.253906 68.5 -38.765625 C 65.125 -42.285156 60.6875 -43.679688 55.1875 -42.953125 C 50.832031 -42.378906 46.453125 -40.226562 42.046875 -36.5 C 37.640625 -32.78125 34.65625 -27.082031 33.09375 -19.40625 L 2.03125 -11.109375 C 2.113281 -15.785156 3.425781 -22.601562 5.96875 -31.5625 C 8.519531 -40.53125 11.707031 -50.394531 15.53125 -61.15625 C 19.351562 -71.925781 23.535156 -82.625 28.078125 -93.25 C 32.617188 -103.875 37.007812 -113.429688 41.25 -121.921875 C 45.488281 -130.410156 49.203125 -136.726562 52.390625 -140.875 L 24.921875 -136.890625 L -4.53125 -63.40625 L -15.609375 -67.890625 C -11.335938 -76.148438 -7.851562 -85.523438 -5.15625 -96.015625 C -2.46875 -106.515625 -0.78125 -117.113281 -0.09375 -127.8125 C 0.582031 -138.507812 -0.222656 -148.140625 -2.515625 -156.703125 C -0.191406 -156.773438 2.1875 -156.851562 4.625 -156.9375 C 7.0625 -157.03125 9.539062 -157.242188 12.0625 -157.578125 C 16.1875 -158.117188 20.316406 -159.015625 24.453125 -160.265625 C 28.597656 -161.515625 32.519531 -163.203125 36.21875 -165.328125 L 31.234375 -152.765625 L 103.421875 -162.3125 C 94.453125 -152.5 85.957031 -142.628906 77.9375 -132.703125 C 69.925781 -122.785156 62.960938 -111.957031 57.046875 -100.21875 C 51.140625 -88.476562 46.632812 -74.941406 43.53125 -59.609375 C 46.375 -62.785156 49.601562 -65.253906 53.21875 -67.015625 C 56.84375 -68.773438 60.601562 -69.910156 64.5 -70.421875 C 71.375 -71.328125 77.78125 -70.484375 83.71875 -67.890625 C 89.65625 -65.296875 93.769531 -61.0625 96.0625 -55.1875 C 98.351562 -49.3125 97.296875 -41.882812 92.890625 -32.90625 C 98.222656 -36.644531 103.460938 -42.410156 108.609375 -50.203125 C 113.753906 -57.992188 118.660156 -66.742188 123.328125 -76.453125 C 127.992188 -86.160156 132.269531 -95.703125 136.15625 -105.078125 L 144.703125 -96.0625 L 142.328125 -90.15625 C 138.128906 -79.570312 133.171875 -69.003906 127.453125 -58.453125 C 121.734375 -47.910156 115.625 -38.535156 109.125 -30.328125 C 102.632812 -22.128906 95.820312 -15.925781 88.6875 -11.71875 C 84.65625 -1.625 79.65625 9.523438 73.6875 21.734375 C 67.71875 33.953125 60.710938 45.78125 52.671875 57.21875 C 44.628906 68.65625 35.476562 78.367188 25.21875 86.359375 C 14.96875 94.359375 3.65625 99.175781 -8.71875 100.8125 C -10.78125 101.082031 -12.75 101.171875 -14.625 101.078125 C -16.5 100.984375 -18.367188 100.941406 -20.234375 100.953125 C -30.648438 99.765625 -38.753906 95.765625 -44.546875 88.953125 C -50.347656 82.140625 -52.484375 73.5 -50.953125 63.03125 C -49.421875 52.570312 -42.953125 41.113281 -31.546875 28.65625 Z M -31.546875 28.65625 "/></g></g></g><g fill="#cf005e" fill-opacity="1"><g transform="translate(912.80841, 321.485057)"><g><path d="M 52.25 -67.765625 C 44.707031 -71.890625 39.570312 -77.210938 36.84375 -83.734375 C 34.125 -90.253906 33.4375 -97.21875 34.78125 -104.625 C 36.132812 -112.03125 39.210938 -119.195312 44.015625 -126.125 C 48.816406 -133.0625 54.753906 -138.859375 61.828125 -143.515625 C 54.367188 -143.460938 47.242188 -140.890625 40.453125 -135.796875 C 33.671875 -130.703125 27.640625 -124.3125 22.359375 -116.625 C 16.859375 -108.894531 12.425781 -100.550781 9.0625 -91.59375 C 5.695312 -82.644531 3.8125 -74.414062 3.40625 -66.90625 C 2.851562 -58.664062 4.46875 -53.046875 8.25 -50.046875 C 12.03125 -47.054688 16.671875 -45.921875 22.171875 -46.640625 C 28.128906 -47.429688 34.046875 -49.847656 39.921875 -53.890625 C 45.796875 -57.929688 49.90625 -62.554688 52.25 -67.765625 Z M 62.5625 -82.390625 C 66.644531 -88.535156 69.992188 -95.394531 72.609375 -102.96875 C 75.222656 -110.550781 76.773438 -117.753906 77.265625 -124.578125 C 77.765625 -131.398438 76.59375 -136.71875 73.75 -140.53125 C 69.101562 -138.75 64.910156 -135.222656 61.171875 -129.953125 C 57.441406 -124.691406 54.71875 -118.859375 53 -112.453125 C 51.28125 -106.046875 51.078125 -100.070312 52.390625 -94.53125 C 53.703125 -88.988281 57.09375 -84.941406 62.5625 -82.390625 Z M -21.75 -48.1875 C -22.070312 -61.207031 -19.816406 -74.15625 -14.984375 -87.03125 C -10.160156 -99.90625 -3.503906 -111.679688 4.984375 -122.359375 C 13.484375 -133.046875 23.25 -141.625 34.28125 -148.09375 C 45.320312 -154.570312 57.039062 -157.695312 69.4375 -157.46875 C 78.0625 -157.4375 84.828125 -154.710938 89.734375 -149.296875 C 94.648438 -143.890625 97.894531 -136.976562 99.46875 -128.5625 C 101.050781 -120.144531 101.140625 -111.117188 99.734375 -101.484375 C 98.328125 -91.847656 95.40625 -82.660156 90.96875 -73.921875 C 91.832031 -72.640625 93.40625 -72.148438 95.6875 -72.453125 C 98.675781 -72.847656 102.148438 -74.820312 106.109375 -78.375 C 110.066406 -81.925781 113.175781 -86.648438 115.4375 -92.546875 L 125.015625 -86.125 C 122.753906 -78.59375 118.789062 -72.410156 113.125 -67.578125 C 107.46875 -62.753906 101.660156 -59.945312 95.703125 -59.15625 C 92.023438 -58.675781 88.234375 -59.109375 84.328125 -60.453125 C 75.492188 -42.734375 65.085938 -28.882812 53.109375 -18.90625 C 41.128906 -8.925781 29.644531 -3.210938 18.65625 -1.765625 C 7.425781 -0.285156 -2.132812 -3.394531 -10.03125 -11.09375 C -17.925781 -18.789062 -21.832031 -31.15625 -21.75 -48.1875 Z M -21.75 -48.1875 "/></g></g></g><g fill="#cf005e" fill-opacity="1"><g transform="translate(1024.165516, 306.772155)"><g><path d="M 104.578125 -87.265625 C 101.941406 -78.984375 98.082031 -70.253906 93 -61.078125 C 87.925781 -51.898438 81.96875 -43.1875 75.125 -34.9375 C 68.289062 -26.6875 60.648438 -19.671875 52.203125 -13.890625 C 43.753906 -8.109375 34.832031 -4.597656 25.4375 -3.359375 C 18.332031 -2.421875 11.082031 -3.035156 3.6875 -5.203125 C -3.707031 -7.378906 -11.269531 -11.222656 -19 -16.734375 L 4.09375 -58.953125 C 3.925781 -54.960938 5.375 -51.945312 8.4375 -49.90625 C 11.507812 -47.863281 14.878906 -47.082031 18.546875 -47.5625 C 20.835938 -47.863281 22.9375 -48.722656 24.84375 -50.140625 C 26.757812 -51.566406 28.007812 -53.597656 28.59375 -56.234375 C 30.320312 -62.523438 29.988281 -68.132812 27.59375 -73.0625 C 25.195312 -78 22.332031 -82.457031 19 -86.4375 C 15.675781 -90.425781 13.460938 -93.984375 12.359375 -97.109375 C 9.898438 -90.960938 7.078125 -84.0625 3.890625 -76.40625 C 0.703125 -68.757812 -1.9375 -63.164062 -4.03125 -59.625 L -13.625 -66.046875 L 11.28125 -126.34375 C 14.4375 -134.226562 19.019531 -140.550781 25.03125 -145.3125 C 31.050781 -150.070312 37.382812 -152.890625 44.03125 -153.765625 C 48.15625 -154.304688 52.269531 -154.03125 56.375 -152.9375 C 60.488281 -151.851562 64.28125 -149.675781 67.75 -146.40625 C 72.539062 -141.90625 75.363281 -136.390625 76.21875 -129.859375 C 77.082031 -123.328125 76.019531 -117.238281 73.03125 -111.59375 C 70.050781 -105.957031 65.203125 -102.109375 58.484375 -100.046875 C 57.816406 -105.097656 56.015625 -109.46875 53.078125 -113.15625 C 50.140625 -116.851562 48.097656 -120.375 46.953125 -123.71875 C 49.003906 -122.351562 50.8125 -121.484375 52.375 -121.109375 C 53.9375 -120.734375 55.289062 -120.625 56.4375 -120.78125 C 59.644531 -121.195312 61.472656 -123.242188 61.921875 -126.921875 C 62.367188 -130.597656 61.488281 -134.15625 59.28125 -137.59375 C 57.082031 -141.03125 53.53125 -142.769531 48.625 -142.8125 C 48.394531 -142.78125 48.097656 -142.800781 47.734375 -142.875 C 47.378906 -142.945312 46.972656 -142.957031 46.515625 -142.90625 C 43.304688 -142.476562 40.5 -140.351562 38.09375 -136.53125 C 35.6875 -132.71875 34.984375 -127.03125 35.984375 -119.46875 C 36.734375 -113.738281 38.8125 -108.125 42.21875 -102.625 C 45.632812 -97.132812 49.273438 -91.671875 53.140625 -86.234375 C 57.003906 -80.804688 60.222656 -75.40625 62.796875 -70.03125 C 65.367188 -64.65625 66.21875 -59.113281 65.34375 -53.40625 C 72.101562 -56.863281 77.484375 -61.535156 81.484375 -67.421875 C 85.492188 -73.316406 89.578125 -80.851562 93.734375 -90.03125 Z M 104.578125 -87.265625 "/></g></g></g><g fill="#ff9bdd" fill-opacity="1"><g transform="translate(59.398915, 419.402074)"><g><path d="M 99.953125 -135.609375 L 99.609375 -135.578125 L 101.640625 -146.6875 C 121.054688 -149.71875 135.785156 -155.566406 145.828125 -164.234375 C 155.878906 -172.910156 163.546875 -182.84375 168.828125 -194.03125 C 174.140625 -204.988281 176.148438 -216.210938 174.859375 -227.703125 C 173.578125 -239.191406 169.125 -249.097656 161.5 -257.421875 C 155.21875 -264.285156 146.828125 -269.523438 136.328125 -273.140625 C 125.828125 -276.765625 113.128906 -277.59375 98.234375 -275.625 C 95.253906 -275.226562 92.175781 -274.707031 89 -274.0625 C 85.820312 -273.414062 82.660156 -272.648438 79.515625 -271.765625 C 70.523438 -269.179688 61.84375 -264.710938 53.46875 -258.359375 C 45.101562 -252.003906 37.472656 -244.46875 30.578125 -235.75 C 23.691406 -227.03125 17.957031 -217.9375 13.375 -208.46875 C 8.800781 -199 5.910156 -189.988281 4.703125 -181.4375 C 3.441406 -173.34375 4.023438 -166.71875 6.453125 -161.5625 C 8.890625 -156.40625 13.40625 -153.5625 20 -153.03125 C 17.207031 -145.90625 13.5625 -140.410156 9.0625 -136.546875 C 4.5625 -132.691406 -0.09375 -130.445312 -4.90625 -129.8125 C -11.09375 -128.988281 -17.128906 -130.578125 -23.015625 -134.578125 C -28.910156 -138.585938 -33.679688 -144.664062 -37.328125 -152.8125 C -40.097656 -159.664062 -41.207031 -167.617188 -40.65625 -176.671875 C -40.101562 -185.722656 -37.171875 -195.726562 -31.859375 -206.6875 C -24.898438 -221.132812 -15.210938 -234.304688 -2.796875 -246.203125 C 9.617188 -258.097656 23.648438 -267.929688 39.296875 -275.703125 C 54.941406 -283.484375 71.015625 -288.460938 87.515625 -290.640625 C 100.117188 -292.304688 113.0625 -292.269531 126.34375 -290.53125 C 139.632812 -288.800781 152.25 -285.109375 164.1875 -279.453125 C 176.125 -273.804688 186.269531 -265.816406 194.625 -255.484375 C 203.21875 -245.203125 208.429688 -234.003906 210.265625 -221.890625 C 212.097656 -209.773438 210.171875 -197.863281 204.484375 -186.15625 C 200.046875 -177.40625 193.171875 -169.4375 183.859375 -162.25 C 174.554688 -155.070312 164.195312 -149.21875 152.78125 -144.6875 C 141.375 -140.15625 130.398438 -137.191406 119.859375 -135.796875 C 116.191406 -135.316406 112.722656 -135.09375 109.453125 -135.125 C 106.179688 -135.15625 103.015625 -135.316406 99.953125 -135.609375 Z M -22.953125 -28.09375 C -13.242188 -30.539062 -4.75 -35.507812 2.53125 -43 C 9.820312 -50.488281 16.222656 -59.84375 21.734375 -71.0625 C 27.242188 -82.289062 32.273438 -94.5 36.828125 -107.6875 C 42.054688 -122.832031 47.046875 -138.46875 51.796875 -154.59375 C 56.546875 -170.726562 61.554688 -186.195312 66.828125 -201 C 72.097656 -215.8125 78.113281 -228.910156 84.875 -240.296875 C 91.644531 -251.679688 99.789062 -260.210938 109.3125 -265.890625 C 113.882812 -268.367188 118.691406 -269.941406 123.734375 -270.609375 C 128.316406 -271.222656 133.21875 -271.171875 138.4375 -270.453125 C 127.007812 -265.210938 118.148438 -256.816406 111.859375 -245.265625 C 105.566406 -233.710938 100.425781 -220.09375 96.4375 -204.40625 C 92.300781 -186.375 89.117188 -169.457031 86.890625 -153.65625 C 84.671875 -137.851562 81.640625 -121.539062 77.796875 -104.71875 C 75.796875 -95.125 73.15625 -85.097656 69.875 -74.640625 C 66.59375 -64.179688 62.472656 -53.023438 57.515625 -41.171875 C 53.023438 -31.023438 46.738281 -22.5625 38.65625 -15.78125 C 30.582031 -9 22.304688 -5.046875 13.828125 -3.921875 C 6.722656 -2.984375 -0.164062 -4.40625 -6.84375 -8.1875 C -13.53125 -11.96875 -18.898438 -18.601562 -22.953125 -28.09375 Z M -22.953125 -28.09375 "/></g></g></g><g fill="#ff9bdd" fill-opacity="1"><g transform="translate(261.492525, 392.700739)"><g><path d="M 50.6875 -132.609375 C 56.945312 -134.597656 63.363281 -140.28125 69.9375 -149.65625 C 76.507812 -159.039062 82.273438 -169.65625 87.234375 -181.5 C 92.117188 -192.175781 95.957031 -202.828125 98.75 -213.453125 C 101.550781 -224.078125 102.972656 -233.179688 103.015625 -240.765625 C 103.054688 -248.359375 101.007812 -252.8125 96.875 -254.125 C 94.40625 -255.195312 91.570312 -253.242188 88.375 -248.265625 C 85.1875 -243.296875 81.738281 -236.3125 78.03125 -227.3125 C 74.320312 -218.320312 70.660156 -208.109375 67.046875 -196.671875 C 63.960938 -186.472656 60.988281 -175.878906 58.125 -164.890625 C 55.269531 -153.898438 52.789062 -143.140625 50.6875 -132.609375 Z M 28.390625 -4.796875 C 19.578125 -6.203125 13.160156 -10.660156 9.140625 -18.171875 C 5.117188 -25.679688 2.9375 -35.128906 2.59375 -46.515625 C 2.53125 -55.828125 2.945312 -65.90625 3.84375 -76.75 C 5.300781 -90.46875 7.769531 -105.773438 11.25 -122.671875 C 14.726562 -139.566406 19.179688 -156.59375 24.609375 -173.75 C 30.035156 -190.90625 36.21875 -206.757812 43.15625 -221.3125 C 50.09375 -235.875 57.609375 -247.828125 65.703125 -257.171875 C 73.796875 -266.515625 82.425781 -271.789062 91.59375 -273 C 94.34375 -273.363281 97.507812 -273.203125 101.09375 -272.515625 C 108.300781 -270.898438 113.546875 -266.925781 116.828125 -260.59375 C 120.117188 -254.269531 121.726562 -246.5 121.65625 -237.28125 C 121.59375 -228.070312 120.113281 -218.085938 117.21875 -207.328125 C 114.320312 -196.566406 110.421875 -185.96875 105.515625 -175.53125 C 98.765625 -161.34375 90.445312 -148.40625 80.5625 -136.71875 C 70.6875 -125.039062 60.082031 -117.054688 48.75 -112.765625 C 47.300781 -107.910156 45.859375 -102.066406 44.421875 -95.234375 C 42.992188 -88.398438 42.082031 -81.628906 41.6875 -74.921875 C 41.289062 -68.222656 41.96875 -62.660156 43.71875 -58.234375 C 45.46875 -53.804688 48.796875 -51.566406 53.703125 -51.515625 L 55.765625 -51.78125 C 62.410156 -52.664062 69.550781 -56.410156 77.1875 -63.015625 C 84.820312 -69.617188 90.832031 -78.335938 95.21875 -89.171875 L 103.8125 -79.8125 C 99.113281 -67.769531 93.648438 -56.207031 87.421875 -45.125 C 81.191406 -34.039062 74.128906 -24.828125 66.234375 -17.484375 C 58.347656 -10.148438 49.59375 -5.847656 39.96875 -4.578125 C 36.53125 -4.128906 32.671875 -4.203125 28.390625 -4.796875 Z M 28.390625 -4.796875 "/></g></g></g><g fill="#ff9bdd" fill-opacity="1"><g transform="translate(345.697389, 381.575289)"><g><path d="M 26.8125 -3.546875 C 19.9375 -2.628906 13.878906 -4.332031 8.640625 -8.65625 C 3.410156 -12.976562 -0.660156 -19.144531 -3.578125 -27.15625 C -6.503906 -35.164062 -7.878906 -44.253906 -7.703125 -54.421875 C -7.535156 -64.585938 -5.351562 -74.957031 -1.15625 -85.53125 C 2.84375 -95.851562 8.160156 -106.347656 14.796875 -117.015625 C 21.429688 -127.691406 29.132812 -136.875 37.90625 -144.5625 C 46.6875 -152.25 55.921875 -156.5 65.609375 -157.3125 C 72.304688 -157.726562 78.113281 -156.101562 83.03125 -152.4375 C 87.945312 -148.78125 90.972656 -143.53125 92.109375 -136.6875 C 93.429688 -140.820312 94.867188 -145.378906 96.421875 -150.359375 C 97.984375 -155.347656 98.039062 -158.910156 96.59375 -161.046875 L 138.171875 -166.546875 C 135.796875 -165.066406 132.832031 -161.003906 129.28125 -154.359375 C 125.738281 -147.710938 122.078125 -139.707031 118.296875 -130.34375 C 114.523438 -120.988281 111.039062 -111.671875 107.84375 -102.390625 C 103.28125 -89.191406 101.640625 -79.0625 102.921875 -72 C 104.210938 -64.945312 107.347656 -61.109375 112.328125 -60.484375 C 117.304688 -59.859375 123.097656 -62.3125 129.703125 -67.84375 C 136.316406 -73.382812 142.566406 -82.140625 148.453125 -94.109375 L 157.578125 -85.875 C 150.265625 -70.6875 142.273438 -57.503906 133.609375 -46.328125 C 124.941406 -35.160156 116.457031 -26.578125 108.15625 -20.578125 C 99.851562 -14.585938 92.429688 -11.628906 85.890625 -11.703125 C 79.578125 -11.796875 74.785156 -15.414062 71.515625 -22.5625 C 68.242188 -29.707031 67.46875 -40.859375 69.1875 -56.015625 C 66.351562 -47.472656 62.769531 -39.300781 58.4375 -31.5 C 54.101562 -23.695312 49.238281 -17.28125 43.84375 -12.25 C 38.445312 -7.226562 32.769531 -4.328125 26.8125 -3.546875 Z M 35 -50.09375 C 40.726562 -50.851562 46.289062 -53.742188 51.6875 -58.765625 C 57.09375 -63.796875 62.160156 -70.003906 66.890625 -77.390625 C 71.628906 -84.773438 75.476562 -92.28125 78.4375 -99.90625 C 82.96875 -111.457031 84.832031 -120.269531 84.03125 -126.34375 C 83.226562 -132.414062 80.097656 -136.722656 74.640625 -139.265625 C 69.265625 -141.117188 63.957031 -140.242188 58.71875 -136.640625 C 53.476562 -133.035156 48.660156 -128.023438 44.265625 -121.609375 C 39.867188 -115.191406 36.046875 -108.394531 32.796875 -101.21875 C 28.785156 -92.757812 25.859375 -84.441406 24.015625 -76.265625 C 22.179688 -68.097656 22.117188 -61.503906 23.828125 -56.484375 C 25.546875 -51.460938 29.269531 -49.332031 35 -50.09375 Z M 35 -50.09375 "/></g></g></g><g fill="#ff9bdd" fill-opacity="1"><g transform="translate(487.643681, 362.820834)"><g><path d="M -20.578125 3.0625 L 1.3125 -64.171875 C 5.632812 -77.335938 9.5625 -89.984375 13.09375 -102.109375 C 16.625 -114.234375 19.085938 -124.695312 20.484375 -133.5 C 21.878906 -142.3125 21.679688 -148.234375 19.890625 -151.265625 L 61.484375 -156.765625 C 60.441406 -154.066406 58.96875 -150.203125 57.0625 -145.171875 C 55.164062 -140.140625 53.191406 -134.800781 51.140625 -129.15625 C 49.085938 -123.519531 47.203125 -118.375 45.484375 -113.71875 C 43.765625 -109.070312 42.453125 -105.753906 41.546875 -103.765625 C 52.546875 -124.578125 63.316406 -139.234375 73.859375 -147.734375 C 84.398438 -156.234375 93.453125 -160.984375 101.015625 -161.984375 C 103.992188 -162.378906 106.554688 -162.367188 108.703125 -161.953125 C 115.359375 -160.972656 119.394531 -156.4375 120.8125 -148.34375 C 122.238281 -140.25 120.457031 -129.460938 115.46875 -115.984375 C 108.039062 -96.347656 104.410156 -81.9375 104.578125 -72.75 C 104.742188 -63.5625 107.234375 -59.285156 112.046875 -59.921875 C 115.253906 -60.347656 119.15625 -63.019531 123.75 -67.9375 C 128.34375 -72.851562 133.078125 -79.832031 137.953125 -88.875 L 148.96875 -84.734375 C 145.34375 -71.660156 140.160156 -59.722656 133.421875 -48.921875 C 126.691406 -38.128906 119.410156 -29.300781 111.578125 -22.4375 C 103.742188 -15.570312 96.160156 -11.65625 88.828125 -10.6875 C 87.910156 -10.5625 86.925781 -10.488281 85.875 -10.46875 C 84.832031 -10.445312 83.722656 -10.476562 82.546875 -10.5625 C 75.171875 -11.675781 69.941406 -15.0625 66.859375 -20.71875 C 63.785156 -26.375 62.414062 -33.65625 62.75 -42.5625 C 63.09375 -51.46875 64.765625 -61.304688 67.765625 -72.078125 C 70.773438 -82.859375 74.691406 -93.8125 79.515625 -104.9375 C 84.515625 -116.550781 87.578125 -125.582031 88.703125 -132.03125 C 89.835938 -138.476562 88.800781 -141.488281 85.59375 -141.0625 C 82.570312 -140.894531 78.328125 -138.113281 72.859375 -132.71875 C 67.398438 -127.332031 61.375 -119.601562 54.78125 -109.53125 C 48.1875 -99.457031 41.882812 -87.144531 35.875 -72.59375 C 32.820312 -65.664062 29.679688 -57.671875 26.453125 -48.609375 C 23.222656 -39.554688 20.644531 -30.820312 18.71875 -22.40625 C 16.800781 -13.988281 15.960938 -7.117188 16.203125 -1.796875 Z M -20.578125 3.0625 "/></g></g></g><g fill="#ff9bdd" fill-opacity="1"><g transform="translate(625.465579, 344.611308)"><g><path d="M 26.8125 -3.546875 C 19.9375 -2.628906 13.878906 -4.332031 8.640625 -8.65625 C 3.410156 -12.976562 -0.660156 -19.144531 -3.578125 -27.15625 C -6.503906 -35.164062 -7.878906 -44.253906 -7.703125 -54.421875 C -7.535156 -64.585938 -5.351562 -74.957031 -1.15625 -85.53125 C 2.84375 -95.851562 8.160156 -106.347656 14.796875 -117.015625 C 21.429688 -127.691406 29.132812 -136.875 37.90625 -144.5625 C 46.6875 -152.25 55.921875 -156.5 65.609375 -157.3125 C 72.304688 -157.726562 78.113281 -156.101562 83.03125 -152.4375 C 87.945312 -148.78125 90.972656 -143.53125 92.109375 -136.6875 C 93.429688 -140.820312 94.867188 -145.378906 96.421875 -150.359375 C 97.984375 -155.347656 98.039062 -158.910156 96.59375 -161.046875 L 138.171875 -166.546875 C 135.796875 -165.066406 132.832031 -161.003906 129.28125 -154.359375 C 125.738281 -147.710938 122.078125 -139.707031 118.296875 -130.34375 C 114.523438 -120.988281 111.039062 -111.671875 107.84375 -102.390625 C 103.28125 -89.191406 101.640625 -79.0625 102.921875 -72 C 104.210938 -64.945312 107.347656 -61.109375 112.328125 -60.484375 C 117.304688 -59.859375 123.097656 -62.3125 129.703125 -67.84375 C 136.316406 -73.382812 142.566406 -82.140625 148.453125 -94.109375 L 157.578125 -85.875 C 150.265625 -70.6875 142.273438 -57.503906 133.609375 -46.328125 C 124.941406 -35.160156 116.457031 -26.578125 108.15625 -20.578125 C 99.851562 -14.585938 92.429688 -11.628906 85.890625 -11.703125 C 79.578125 -11.796875 74.785156 -15.414062 71.515625 -22.5625 C 68.242188 -29.707031 67.46875 -40.859375 69.1875 -56.015625 C 66.351562 -47.472656 62.769531 -39.300781 58.4375 -31.5 C 54.101562 -23.695312 49.238281 -17.28125 43.84375 -12.25 C 38.445312 -7.226562 32.769531 -4.328125 26.8125 -3.546875 Z M 35 -50.09375 C 40.726562 -50.851562 46.289062 -53.742188 51.6875 -58.765625 C 57.09375 -63.796875 62.160156 -70.003906 66.890625 -77.390625 C 71.628906 -84.773438 75.476562 -92.28125 78.4375 -99.90625 C 82.96875 -111.457031 84.832031 -120.269531 84.03125 -126.34375 C 83.226562 -132.414062 80.097656 -136.722656 74.640625 -139.265625 C 69.265625 -141.117188 63.957031 -140.242188 58.71875 -136.640625 C 53.476562 -133.035156 48.660156 -128.023438 44.265625 -121.609375 C 39.867188 -115.191406 36.046875 -108.394531 32.796875 -101.21875 C 28.785156 -92.757812 25.859375 -84.441406 24.015625 -76.265625 C 22.179688 -68.097656 22.117188 -61.503906 23.828125 -56.484375 C 25.546875 -51.460938 29.269531 -49.332031 35 -50.09375 Z M 35 -50.09375 "/></g></g></g><g fill="#ff9bdd" fill-opacity="1"><g transform="translate(767.411871, 325.856853)"><g><path d="M 58.3125 -0.703125 C 49.144531 0.503906 39.832031 3.25 30.375 7.53125 C 20.914062 11.8125 12.253906 16.859375 4.390625 22.671875 C -3.460938 28.492188 -9.71875 34.507812 -14.375 40.71875 C -19.039062 46.925781 -21.210938 52.570312 -20.890625 57.65625 C -20.566406 62.75 -16.96875 66.59375 -10.09375 69.1875 C -7.164062 70.195312 -4.210938 70.503906 -1.234375 70.109375 C 4.265625 69.378906 9.796875 66.664062 15.359375 61.96875 C 20.921875 57.269531 26.378906 51.359375 31.734375 44.234375 C 37.085938 37.117188 42.03125 29.585938 46.5625 21.640625 C 51.101562 13.703125 55.019531 6.253906 58.3125 -0.703125 Z M -31.546875 28.65625 C -24.660156 20.75 -15.945312 13.414062 -5.40625 6.65625 C 5.125 -0.09375 16.75 -6.054688 29.46875 -11.234375 C 42.1875 -16.410156 54.988281 -20.550781 67.875 -23.65625 C 71.664062 -30.21875 71.875 -35.253906 68.5 -38.765625 C 65.125 -42.285156 60.6875 -43.679688 55.1875 -42.953125 C 50.832031 -42.378906 46.453125 -40.226562 42.046875 -36.5 C 37.640625 -32.78125 34.65625 -27.082031 33.09375 -19.40625 L 2.03125 -11.109375 C 2.113281 -15.785156 3.425781 -22.601562 5.96875 -31.5625 C 8.519531 -40.53125 11.707031 -50.394531 15.53125 -61.15625 C 19.351562 -71.925781 23.535156 -82.625 28.078125 -93.25 C 32.617188 -103.875 37.007812 -113.429688 41.25 -121.921875 C 45.488281 -130.410156 49.203125 -136.726562 52.390625 -140.875 L 24.921875 -136.890625 L -4.53125 -63.40625 L -15.609375 -67.890625 C -11.335938 -76.148438 -7.851562 -85.523438 -5.15625 -96.015625 C -2.46875 -106.515625 -0.78125 -117.113281 -0.09375 -127.8125 C 0.582031 -138.507812 -0.222656 -148.140625 -2.515625 -156.703125 C -0.191406 -156.773438 2.1875 -156.851562 4.625 -156.9375 C 7.0625 -157.03125 9.539062 -157.242188 12.0625 -157.578125 C 16.1875 -158.117188 20.316406 -159.015625 24.453125 -160.265625 C 28.597656 -161.515625 32.519531 -163.203125 36.21875 -165.328125 L 31.234375 -152.765625 L 103.421875 -162.3125 C 94.453125 -152.5 85.957031 -142.628906 77.9375 -132.703125 C 69.925781 -122.785156 62.960938 -111.957031 57.046875 -100.21875 C 51.140625 -88.476562 46.632812 -74.941406 43.53125 -59.609375 C 46.375 -62.785156 49.601562 -65.253906 53.21875 -67.015625 C 56.84375 -68.773438 60.601562 -69.910156 64.5 -70.421875 C 71.375 -71.328125 77.78125 -70.484375 83.71875 -67.890625 C 89.65625 -65.296875 93.769531 -61.0625 96.0625 -55.1875 C 98.351562 -49.3125 97.296875 -41.882812 92.890625 -32.90625 C 98.222656 -36.644531 103.460938 -42.410156 108.609375 -50.203125 C 113.753906 -57.992188 118.660156 -66.742188 123.328125 -76.453125 C 127.992188 -86.160156 132.269531 -95.703125 136.15625 -105.078125 L 144.703125 -96.0625 L 142.328125 -90.15625 C 138.128906 -79.570312 133.171875 -69.003906 127.453125 -58.453125 C 121.734375 -47.910156 115.625 -38.535156 109.125 -30.328125 C 102.632812 -22.128906 95.820312 -15.925781 88.6875 -11.71875 C 84.65625 -1.625 79.65625 9.523438 73.6875 21.734375 C 67.71875 33.953125 60.710938 45.78125 52.671875 57.21875 C 44.628906 68.65625 35.476562 78.367188 25.21875 86.359375 C 14.96875 94.359375 3.65625 99.175781 -8.71875 100.8125 C -10.78125 101.082031 -12.75 101.171875 -14.625 101.078125 C -16.5 100.984375 -18.367188 100.941406 -20.234375 100.953125 C -30.648438 99.765625 -38.753906 95.765625 -44.546875 88.953125 C -50.347656 82.140625 -52.484375 73.5 -50.953125 63.03125 C -49.421875 52.570312 -42.953125 41.113281 -31.546875 28.65625 Z M -31.546875 28.65625 "/></g></g></g><g fill="#ff9bdd" fill-opacity="1"><g transform="translate(896.297595, 308.828007)"><g><path d="M 52.25 -67.765625 C 44.707031 -71.890625 39.570312 -77.210938 36.84375 -83.734375 C 34.125 -90.253906 33.4375 -97.21875 34.78125 -104.625 C 36.132812 -112.03125 39.210938 -119.195312 44.015625 -126.125 C 48.816406 -133.0625 54.753906 -138.859375 61.828125 -143.515625 C 54.367188 -143.460938 47.242188 -140.890625 40.453125 -135.796875 C 33.671875 -130.703125 27.640625 -124.3125 22.359375 -116.625 C 16.859375 -108.894531 12.425781 -100.550781 9.0625 -91.59375 C 5.695312 -82.644531 3.8125 -74.414062 3.40625 -66.90625 C 2.851562 -58.664062 4.46875 -53.046875 8.25 -50.046875 C 12.03125 -47.054688 16.671875 -45.921875 22.171875 -46.640625 C 28.128906 -47.429688 34.046875 -49.847656 39.921875 -53.890625 C 45.796875 -57.929688 49.90625 -62.554688 52.25 -67.765625 Z M 62.5625 -82.390625 C 66.644531 -88.535156 69.992188 -95.394531 72.609375 -102.96875 C 75.222656 -110.550781 76.773438 -117.753906 77.265625 -124.578125 C 77.765625 -131.398438 76.59375 -136.71875 73.75 -140.53125 C 69.101562 -138.75 64.910156 -135.222656 61.171875 -129.953125 C 57.441406 -124.691406 54.71875 -118.859375 53 -112.453125 C 51.28125 -106.046875 51.078125 -100.070312 52.390625 -94.53125 C 53.703125 -88.988281 57.09375 -84.941406 62.5625 -82.390625 Z M -21.75 -48.1875 C -22.070312 -61.207031 -19.816406 -74.15625 -14.984375 -87.03125 C -10.160156 -99.90625 -3.503906 -111.679688 4.984375 -122.359375 C 13.484375 -133.046875 23.25 -141.625 34.28125 -148.09375 C 45.320312 -154.570312 57.039062 -157.695312 69.4375 -157.46875 C 78.0625 -157.4375 84.828125 -154.710938 89.734375 -149.296875 C 94.648438 -143.890625 97.894531 -136.976562 99.46875 -128.5625 C 101.050781 -120.144531 101.140625 -111.117188 99.734375 -101.484375 C 98.328125 -91.847656 95.40625 -82.660156 90.96875 -73.921875 C 91.832031 -72.640625 93.40625 -72.148438 95.6875 -72.453125 C 98.675781 -72.847656 102.148438 -74.820312 106.109375 -78.375 C 110.066406 -81.925781 113.175781 -86.648438 115.4375 -92.546875 L 125.015625 -86.125 C 122.753906 -78.59375 118.789062 -72.410156 113.125 -67.578125 C 107.46875 -62.753906 101.660156 -59.945312 95.703125 -59.15625 C 92.023438 -58.675781 88.234375 -59.109375 84.328125 -60.453125 C 75.492188 -42.734375 65.085938 -28.882812 53.109375 -18.90625 C 41.128906 -8.925781 29.644531 -3.210938 18.65625 -1.765625 C 7.425781 -0.285156 -2.132812 -3.394531 -10.03125 -11.09375 C -17.925781 -18.789062 -21.832031 -31.15625 -21.75 -48.1875 Z M -21.75 -48.1875 "/></g></g></g><g fill="#ff9bdd" fill-opacity="1"><g transform="translate(1007.654701, 294.115105)"><g><path d="M 104.578125 -87.265625 C 101.941406 -78.984375 98.082031 -70.253906 93 -61.078125 C 87.925781 -51.898438 81.96875 -43.1875 75.125 -34.9375 C 68.289062 -26.6875 60.648438 -19.671875 52.203125 -13.890625 C 43.753906 -8.109375 34.832031 -4.597656 25.4375 -3.359375 C 18.332031 -2.421875 11.082031 -3.035156 3.6875 -5.203125 C -3.707031 -7.378906 -11.269531 -11.222656 -19 -16.734375 L 4.09375 -58.953125 C 3.925781 -54.960938 5.375 -51.945312 8.4375 -49.90625 C 11.507812 -47.863281 14.878906 -47.082031 18.546875 -47.5625 C 20.835938 -47.863281 22.9375 -48.722656 24.84375 -50.140625 C 26.757812 -51.566406 28.007812 -53.597656 28.59375 -56.234375 C 30.320312 -62.523438 29.988281 -68.132812 27.59375 -73.0625 C 25.195312 -78 22.332031 -82.457031 19 -86.4375 C 15.675781 -90.425781 13.460938 -93.984375 12.359375 -97.109375 C 9.898438 -90.960938 7.078125 -84.0625 3.890625 -76.40625 C 0.703125 -68.757812 -1.9375 -63.164062 -4.03125 -59.625 L -13.625 -66.046875 L 11.28125 -126.34375 C 14.4375 -134.226562 19.019531 -140.550781 25.03125 -145.3125 C 31.050781 -150.070312 37.382812 -152.890625 44.03125 -153.765625 C 48.15625 -154.304688 52.269531 -154.03125 56.375 -152.9375 C 60.488281 -151.851562 64.28125 -149.675781 67.75 -146.40625 C 72.539062 -141.90625 75.363281 -136.390625 76.21875 -129.859375 C 77.082031 -123.328125 76.019531 -117.238281 73.03125 -111.59375 C 70.050781 -105.957031 65.203125 -102.109375 58.484375 -100.046875 C 57.816406 -105.097656 56.015625 -109.46875 53.078125 -113.15625 C 50.140625 -116.851562 48.097656 -120.375 46.953125 -123.71875 C 49.003906 -122.351562 50.8125 -121.484375 52.375 -121.109375 C 53.9375 -120.734375 55.289062 -120.625 56.4375 -120.78125 C 59.644531 -121.195312 61.472656 -123.242188 61.921875 -126.921875 C 62.367188 -130.597656 61.488281 -134.15625 59.28125 -137.59375 C 57.082031 -141.03125 53.53125 -142.769531 48.625 -142.8125 C 48.394531 -142.78125 48.097656 -142.800781 47.734375 -142.875 C 47.378906 -142.945312 46.972656 -142.957031 46.515625 -142.90625 C 43.304688 -142.476562 40.5 -140.351562 38.09375 -136.53125 C 35.6875 -132.71875 34.984375 -127.03125 35.984375 -119.46875 C 36.734375 -113.738281 38.8125 -108.125 42.21875 -102.625 C 45.632812 -97.132812 49.273438 -91.671875 53.140625 -86.234375 C 57.003906 -80.804688 60.222656 -75.40625 62.796875 -70.03125 C 65.367188 -64.65625 66.21875 -59.113281 65.34375 -53.40625 C 72.101562 -56.863281 77.484375 -61.535156 81.484375 -67.421875 C 85.492188 -73.316406 89.578125 -80.851562 93.734375 -90.03125 Z M 104.578125 -87.265625 "/></g></g></g></g></g></svg>